<?xml version="1.0" ?><!DOCTYPE svg  PUBLIC '-//W3C//DTD SVG 1.1//EN'  'http://www.w3.org/Graphics/SVG/1.1/DTD/svg11.dtd'><svg id="4" width="current" height="current" enable-background="new 0 0 24 24" version="1.1" viewBox="0 0 24 24" xml:space="preserve" xmlns="http://www.w3.org/2000/svg" xmlns:xlink="http://www.w3.org/1999/xlink"><g><path id="4" fill="current" d="M23,0H1C0.4,0,0,0.4,0,1v17c0,0.6,0.4,1,1,1h8v2H7c-0.6,0-1,0.4-1,1v2h1h10h1v-2c0-0.6-0.4-1-1-1h-2v-2h8c0.6,0,1-0.4,1-1   V1C24,0.4,23.6,0,23,0z M17,22v1H7v-1h2h1h4h1H17z M10,21v-2h4v2H10z M2,17v-1.8l6-6l5,5l2-2l4.8,4.8H2z M22,17h-1l-6-6l-2,2L8,8   l-6,6V2h20V17z"/><path id="4" d="M16,10c1.7,0,3-1.3,3-3s-1.3-3-3-3s-3,1.3-3,3S14.3,10,16,10z M16,5c1.1,0,2,0.9,2,2s-0.9,2-2,2s-2-0.9-2-2S14.9,5,16,5z"/></g></svg>