<?xml version="1.0" ?><svg id="3" width="current" height="current" viewBox="0 0 512 512" xmlns="http://www.w3.org/2000/svg"><g id="Experience_briefcase"><path id="3" d="M347,354.0043a27.9927,27.9927,0,0,1-28,28H193a28.037,28.037,0,0,1-28-28H74a62.5813,62.5813,0,0,1-35-10.64v66.64a35.013,35.013,0,0,0,35,35H438a34.9682,34.9682,0,0,0,35-35v-66.64a62.5856,62.5856,0,0,1-35,10.64Z"/><rect id="3" height="56" width="126" x="193.0325" y="297.997"/><path id="3" fill="current" d="M438,137.0043H347.03l.0009-.0086V109.0265a42.0759,42.0759,0,0,0-42.0274-42.0308H207.0615a42.0765,42.0765,0,0,0-42.0307,42.0308v27.9692l.0008.0086H74a35.0126,35.0126,0,0,0-35,35v119a35.013,35.013,0,0,0,35,35h91v-28a28.0367,28.0367,0,0,1,28-28H319a27.9924,27.9924,0,0,1,28,28v28h91a34.9682,34.9682,0,0,0,35-35v-119A34.9679,34.9679,0,0,0,438,137.0043Zm-244.97,0,.0009-.0086V109.0265a14.0489,14.0489,0,0,1,14.0307-14.0308h97.9419a14.046,14.046,0,0,1,14.0274,14.0308v27.9692l.0008.0086Z"/></g></svg>